Coordinates
version=1
nRows=6
nColumns=36
inDegrees=yes

Units are S.I. units (second, meters, Newtons, ...)
If the header above contains a line with 'inDegrees', this indicates whether rotational values are in degrees (yes) or radians (no).

endheader
time	pelvis_tilt	pelvis_list	pelvis_rotation	pelvis_tx	pelvis_ty	pelvis_tz	hip_flexion_r	hip_adduction_r	hip_rotation_r	knee_angle_r	knee_angle_r_beta	ankle_angle_r	subtalar_angle_r	mtp_angle_r	hip_flexion_l	hip_adduction_l	hip_rotation_l	knee_angle_l	knee_angle_l_beta	ankle_angle_l	subtalar_angle_l	mtp_angle_l	lumbar_extension	lumbar_bending	lumbar_rotation	arm_flex_r	arm_add_r	arm_rot_r	elbow_flex_r	pro_sup_r	arm_flex_l	arm_add_l	arm_rot_l	elbow_flex_l	pro_sup_l
      1.70416670	      0.55923525	      0.60992148	     -0.66097389	     -0.91306190	      1.23601742	     -0.06525591	     -2.04473762	     -0.71554225	      3.78045648	      2.13289765	      0.03722609	      4.36199311	     -5.84978565	     -7.49999987	     -2.89541070	     -0.29831956	      2.74865721	      0.91226278	      0.01592199	      3.76909013	     -3.17564027	     -7.49999987	    -14.71877659	     -0.29730358	     -0.92145005	      9.35095197	     -7.88559106	     13.71815428	     36.44756658	     79.59463089	      6.68399934	    -11.02690731	     11.35616143	     42.46127413	     86.09462599
      1.70833330	      0.51013814	      0.58395697	     -0.63831177	     -0.91256530	      1.24131778	     -0.06520414	     -1.98373013	     -0.64537725	      3.80461921	      2.13381321	      0.03724207	      4.38423682	     -5.82734066	     -7.49999987	     -2.83750299	     -0.36591219	      2.75583153	      0.93444372	      0.01630912	      3.78742522	     -3.18383105	     -7.49999987	    -14.73656391	     -0.34433943	     -0.96069713	      9.37198769	     -7.84041352	     13.72253923	     36.45946262	     79.59072777	      6.77586631	    -11.04101824	     11.34638776	     42.48675762	     86.08571080
      1.71250000	      0.55573877	      0.51981223	     -0.64995592	     -0.91232975	      1.24260492	     -0.06630668	     -2.07653694	     -0.56573960	      3.51997505	      2.02732264	      0.03538346	      4.73773424	     -4.92835983	     -7.49999987	     -2.92182979	     -0.44182811	      2.53250821	      0.90857975	      0.01585771	      4.00348169	     -2.52079859	     -7.49999987	    -14.75428380	     -0.30156654	     -1.04838860	      9.51081861	     -7.62043009	     13.68404488	     36.10221297	     76.12829920	      6.86216681	    -11.00050933	     11.46410801	     42.33937221	     81.77247528
      1.71666670	      0.59814699	      0.52012437	     -0.58457125	     -0.91283487	      1.24379770	     -0.06862627	     -2.16471635	     -0.60097597	      3.73891723	      1.89643875	      0.03309910	      4.39609377	     -5.36711234	     -7.49999987	     -2.96081012	     -0.38853920	      3.06051395	      0.87735244	      0.01531269	      3.56613375	     -3.36459806	     -7.49999987	    -14.89539674	     -0.26517758	     -1.20563706	      9.73126438	     -7.87469005	     14.84010599	     36.08488331	     75.00300621	      6.97752876	    -11.29439936	     12.58876866	     42.67892939	     80.19423871
      1.72083330	      0.61348811	      0.50988111	     -0.60132404	     -0.91368046	      1.23802309	     -0.06756027	     -2.16604432	     -0.61394724	      3.81638269	      1.89142476	      0.03301159	      4.39984486	     -5.51656246	     -7.49999987	     -2.94083417	     -0.36532744	      2.97684242	      0.92718535	      0.01618244	      3.70289943	     -3.22765976	     -7.49999987	    -15.05065494	     -0.26608723	     -1.37149329	      9.79954633	     -7.66665716	     13.67893916	     36.20286885	     79.74376466	      6.89408435	    -11.14744089	     11.08735865	     42.95886927	     86.13363609
      1.72500000	      0.69410573	      0.53230308	     -0.55048609	     -0.91197089	      1.23944932	     -0.06907414	     -2.27070259	     -0.68046095	      3.92893612	      1.90493420	      0.03324737	      4.18168387	     -5.87855457	     -7.49999987	     -3.00926949	     -0.31565321	      2.98696566	      0.94567058	      0.01650507	      3.84681697	     -2.90642622	     -7.49999987	    -15.20731538	     -0.23305461	     -1.47300207	      9.82814764	     -7.69979105	     13.96643642	     36.40311144	     75.08044534	      7.03791584	    -11.20812715	     11.90282375	     43.06740532	     80.26634099
